<svg width="24" height="24" viewBox="0 0 24 24" fill="none" xmlns="http://www.w3.org/2000/svg">
<g id="build_24px">
<path id="icon/action/build_24px" fill-rule="evenodd" clip-rule="evenodd" d="M13.5758 9.90958L22.6559 18.9896C23.0559 19.3896 23.0559 20.0196 22.6559 20.3996L20.3558 22.6996C19.9658 23.0896 19.3358 23.0896 18.9458 22.6996L9.83582 13.5896C7.51587 14.4596 4.80591 13.9696 2.9458 12.1096C0.645874 9.81958 0.435913 6.22958 2.2959 3.68958L6.12585 7.51956L7.5459 6.10959L3.70581 2.25958C6.25586 0.399567 9.83582 0.609589 12.1359 2.90958C14.0259 4.80957 14.5059 7.56958 13.5758 9.90958ZM10.1959 11.1296L19.6559 20.5896L20.5359 19.6996L11.0859 10.2496C11.5459 9.65958 11.8459 8.99957 11.9659 8.28958C12.2159 6.89957 11.8059 5.40958 10.726 4.32956C9.77588 3.38956 8.52588 2.94955 7.28589 3.01956L10.3759 6.10956L6.13586 10.3496L3.0459 7.25958C2.97595 8.49957 3.41589 9.75958 4.36584 10.6996C5.40588 11.7396 6.83594 12.1496 8.19592 11.9496C8.90588 11.8496 9.58594 11.5796 10.1959 11.1296Z" fill="black" fill-opacity="0.54"/>
</g>
</svg>
